# xmcd
# Track frame offsets:
# 150
# 13174
# 26142
# 42130
# 58627
# 74658
# 86452
# 99562
# 118366
# 135657
# 149893
# 159625
#
# Disc length: 2330 seconds
# Revision: 0
# Processed by: cddbd v1.5.2PL0 Copyright (c) Steve Scherf et al.
# Submitted via: VisiTrax 2.10.2.252 - For more info visit www.synapsa.com
#
DISCID=b509180c
DTITLE=David Lindley - El Rayo-X
DYEAR=2008
DGENRE=Blues
TTITLE0=She took off my romeos
TTITLE1=Bye bye love
TTITLE2=Mercury Blues
TTITLE3=Quarter of a man
TTITLE4=Ain´t no way
TTITLE5=Twist and shout
TTITLE6=EL RAYO-X
TTITLE7=Your old lady
TTITLE8=Don´t look back
TTITLE9=Petit fleur
TTITLE10=Tu-ber-cu-lucas and the sinus blues
TTITLE11=Pay the man
EXTD=
EXTT0=
EXTT1=
EXTT2=
EXTT3=
EXTT4=
EXTT5=
EXTT6=
EXTT7=
EXTT8=
EXTT9=
EXTT10=
EXTT11=
PLAYORDER=
